<svg class="main-svg" xmlns="http://www.w3.org/2000/svg" xmlns:xlink="http://www.w3.org/1999/xlink" width="600" height="400" viewBox="0 0 600 400"><rect x="0" y="0" width="600" height="400" style="fill: rgb(255, 255, 255); fill-opacity: 1;"/><defs id="defs-8a5b35"><g class="clips"><clipPath id="clip8a5b35xyplot" class="plotclip"><rect width="497.60419947506557" height="342.9133858267717"/></clipPath><clipPath class="axesclip" id="clip8a5b35x"><rect x="26.931233595800524" y="0" width="497.60419947506557" height="400"/></clipPath><clipPath class="axesclip" id="clip8a5b35y"><rect x="0" y="23.543307086614167" width="600" height="342.9133858267717"/></clipPath><clipPath class="axesclip" id="clip8a5b35xy"><rect x="26.931233595800524" y="23.543307086614167" width="497.60419947506557" height="342.9133858267717"/></clipPath></g><g class="gradients"/></defs><g class="bglayer"/><g class="layer-below"><g class="imagelayer"/><g class="shapelayer"/></g><g class="cartesianlayer"><g class="subplot xy"><g class="layer-subplot"><g class="shapelayer"/><g class="imagelayer"/></g><g class="gridlayer"><g class="x"><path class="xgrid crisp" transform="translate(48.43123359580052,0)" d="M0,23.543307086614167v342.9133858267717" style="stroke: rgb(0, 0, 0); stroke-opacity: 0.1; stroke-width: 0.5px;"/><path class="xgrid crisp" transform="translate(160.77123359580054,0)" d="M0,23.543307086614167v342.9133858267717" style="stroke: rgb(0, 0, 0); stroke-opacity: 0.1; stroke-width: 0.5px;"/><path class="xgrid crisp" transform="translate(273.1212335958005,0)" d="M0,23.543307086614167v342.9133858267717" style="stroke: rgb(0, 0, 0); stroke-opacity: 0.1; stroke-width: 0.5px;"/><path class="xgrid crisp" transform="translate(385.4712335958005,0)" d="M0,23.543307086614167v342.9133858267717" style="stroke: rgb(0, 0, 0); stroke-opacity: 0.1; stroke-width: 0.5px;"/><path class="xgrid crisp" transform="translate(497.8112335958005,0)" d="M0,23.543307086614167v342.9133858267717" style="stroke: rgb(0, 0, 0); stroke-opacity: 0.1; stroke-width: 0.5px;"/></g><g class="y"><path class="ygrid crisp" transform="translate(0,356.75330708661414)" d="M26.931233595800524,0h497.60419947506557" style="stroke: rgb(0, 0, 0); stroke-opacity: 0.1; stroke-width: 0.5px;"/><path class="ygrid crisp" transform="translate(0,251.03330708661417)" d="M26.931233595800524,0h497.60419947506557" style="stroke: rgb(0, 0, 0); stroke-opacity: 0.1; stroke-width: 0.5px;"/><path class="ygrid crisp" transform="translate(0,145.31330708661417)" d="M26.931233595800524,0h497.60419947506557" style="stroke: rgb(0, 0, 0); stroke-opacity: 0.1; stroke-width: 0.5px;"/><path class="ygrid crisp" transform="translate(0,39.59330708661417)" d="M26.931233595800524,0h497.60419947506557" style="stroke: rgb(0, 0, 0); stroke-opacity: 0.1; stroke-width: 0.5px;"/></g></g><g class="zerolinelayer"/><path class="xlines-below"/><path class="ylines-below"/><g class="overlines-below"/><g class="xaxislayer-below"/><g class="yaxislayer-below"/><g class="overaxes-below"/><g class="plot" transform="translate(26.931233595800524, 23.543307086614167)" clip-path="url(#clip8a5b35xyplot)"><g class="scatterlayer mlayer"><g class="trace scatter trace6b2baa" style="stroke-miterlimit: 2;"><g class="fills"><g><path class="js-fill" d="M49.58,333.21L49.58,333.21L49.58,328.98L49.58,333.21L77.67,333.21L77.67,328.98L49.58,328.98" style="fill: rgb(0, 0, 0); fill-opacity: 1; stroke-width: 0;"/></g></g><g class="errorbars"/><g class="lines"><path class="js-line" d="M49.58,328.98L49.58,333.21L77.67,333.21L77.67,328.98L49.58,328.98" style="vector-effect: non-scaling-stroke; fill: none; stroke: rgb(0, 0, 0); stroke-opacity: 1; stroke-width: 1px; opacity: 1;"/></g><g class="points"/><g class="text"/></g><g class="trace scatter trace9eebca" style="stroke-miterlimit: 2;"><g class="fills"><g><path class="js-fill" d="M77.67,333.21L77.67,333.21L77.67,307.84L77.67,333.21L105.76,333.21L105.76,307.84L77.67,307.84" style="fill: rgb(0, 0, 0); fill-opacity: 1; stroke-width: 0;"/></g></g><g class="errorbars"/><g class="lines"><path class="js-line" d="M77.67,307.84L77.67,333.21L105.76,333.21L105.76,307.84L77.67,307.84" style="vector-effect: non-scaling-stroke; fill: none; stroke: rgb(0, 0, 0); stroke-opacity: 1; stroke-width: 1px; opacity: 1;"/></g><g class="points"/><g class="text"/></g><g class="trace scatter trace3bccde" style="stroke-miterlimit: 2;"><g class="fills"><g><path class="js-fill" d="M105.76,333.21L105.76,333.21L105.76,276.12L105.76,333.21L133.84,333.21L133.84,276.12L105.76,276.12" style="fill: rgb(0, 0, 0); fill-opacity: 1; stroke-width: 0;"/></g></g><g class="errorbars"/><g class="lines"><path class="js-line" d="M105.76,276.12L105.76,333.21L133.84,333.21L133.84,276.12L105.76,276.12" style="vector-effect: non-scaling-stroke; fill: none; stroke: rgb(0, 0, 0); stroke-opacity: 1; stroke-width: 1px; opacity: 1;"/></g><g class="points"/><g class="text"/></g><g class="trace scatter trace50fd95" style="stroke-miterlimit: 2;"><g class="fills"><g><path class="js-fill" d="M133.84,333.21L133.84,333.21L133.84,221.15L133.84,333.21L161.93,333.21L161.93,221.15L133.84,221.15" style="fill: rgb(0, 0, 0); fill-opacity: 1; stroke-width: 0;"/></g></g><g class="errorbars"/><g class="lines"><path class="js-line" d="M133.84,221.15L133.84,333.21L161.93,333.21L161.93,221.15L133.84,221.15" style="vector-effect: non-scaling-stroke; fill: none; stroke: rgb(0, 0, 0); stroke-opacity: 1; stroke-width: 1px; opacity: 1;"/></g><g class="points"/><g class="text"/></g><g class="trace scatter trace63be4a" style="stroke-miterlimit: 2;"><g class="fills"><g><path class="js-fill" d="M161.93,333.21L161.93,333.21L161.93,121.77L161.93,333.21L190.02,333.21L190.02,121.77L161.93,121.77" style="fill: rgb(0, 0, 0); fill-opacity: 1; stroke-width: 0;"/></g></g><g class="errorbars"/><g class="lines"><path class="js-line" d="M161.93,121.77L161.93,333.21L190.02,333.21L190.02,121.77L161.93,121.77" style="vector-effect: non-scaling-stroke; fill: none; stroke: rgb(0, 0, 0); stroke-opacity: 1; stroke-width: 1px; opacity: 1;"/></g><g class="points"/><g class="text"/></g><g class="trace scatter trace30eecf" style="stroke-miterlimit: 2;"><g class="fills"><g><path class="js-fill" d="M190.02,333.21L190.02,333.21L190.02,9.71L190.02,333.21L218.1,333.21L218.1,9.71L190.02,9.71" style="fill: rgb(0, 0, 0); fill-opacity: 1; stroke-width: 0;"/></g></g><g class="errorbars"/><g class="lines"><path class="js-line" d="M190.02,9.71L190.02,333.21L218.1,333.21L218.1,9.71L190.02,9.71" style="vector-effect: non-scaling-stroke; fill: none; stroke: rgb(0, 0, 0); stroke-opacity: 1; stroke-width: 1px; opacity: 1;"/></g><g class="points"/><g class="text"/></g><g class="trace scatter traced32267" style="stroke-miterlimit: 2;"><g class="fills"><g><path class="js-fill" d="M218.1,333.21L218.1,333.21L218.1,11.82L218.1,333.21L246.19,333.21L246.19,11.82L218.1,11.82" style="fill: rgb(0, 0, 0); fill-opacity: 1; stroke-width: 0;"/></g></g><g class="errorbars"/><g class="lines"><path class="js-line" d="M218.1,11.82L218.1,333.21L246.19,333.21L246.19,11.82L218.1,11.82" style="vector-effect: non-scaling-stroke; fill: none; stroke: rgb(0, 0, 0); stroke-opacity: 1; stroke-width: 1px; opacity: 1;"/></g><g class="points"/><g class="text"/></g><g class="trace scatter tracef7862f" style="stroke-miterlimit: 2;"><g class="fills"><g><path class="js-fill" d="M246.19,333.21L246.19,333.21L246.19,13.93L246.19,333.21L274.28,333.21L274.28,13.93L246.19,13.93" style="fill: rgb(0, 0, 0); fill-opacity: 1; stroke-width: 0;"/></g></g><g class="errorbars"/><g class="lines"><path class="js-line" d="M246.19,13.93L246.19,333.21L274.28,333.21L274.28,13.93L246.19,13.93" style="vector-effect: non-scaling-stroke; fill: none; stroke: rgb(0, 0, 0); stroke-opacity: 1; stroke-width: 1px; opacity: 1;"/></g><g class="points"/><g class="text"/></g><g class="trace scatter trace7b9031" style="stroke-miterlimit: 2;"><g class="fills"><g><path class="js-fill" d="M274.28,333.21L274.28,333.21L274.28,20.28L274.28,333.21L302.36,333.21L302.36,20.28L274.28,20.28" style="fill: rgb(0, 0, 0); fill-opacity: 1; stroke-width: 0;"/></g></g><g class="errorbars"/><g class="lines"><path class="js-line" d="M274.28,20.28L274.28,333.21L302.36,333.21L302.36,20.28L274.28,20.28" style="vector-effect: non-scaling-stroke; fill: none; stroke: rgb(0, 0, 0); stroke-opacity: 1; stroke-width: 1px; opacity: 1;"/></g><g class="points"/><g class="text"/></g><g class="trace scatter trace17a194" style="stroke-miterlimit: 2;"><g class="fills"><g><path class="js-fill" d="M302.36,333.21L302.36,333.21L302.36,115.43L302.36,333.21L330.45,333.21L330.45,115.43L302.36,115.43" style="fill: rgb(0, 0, 0); fill-opacity: 1; stroke-width: 0;"/></g></g><g class="errorbars"/><g class="lines"><path class="js-line" d="M302.36,115.43L302.36,333.21L330.45,333.21L330.45,115.43L302.36,115.43" style="vector-effect: non-scaling-stroke; fill: none; stroke: rgb(0, 0, 0); stroke-opacity: 1; stroke-width: 1px; opacity: 1;"/></g><g class="points"/><g class="text"/></g><g class="trace scatter trace7d0d20" style="stroke-miterlimit: 2;"><g class="fills"><g><path class="js-fill" d="M330.45,333.21L330.45,333.21L330.45,208.46L330.45,333.21L358.54,333.21L358.54,208.46L330.45,208.46" style="fill: rgb(0, 0, 0); fill-opacity: 1; stroke-width: 0;"/></g></g><g class="errorbars"/><g class="lines"><path class="js-line" d="M330.45,208.46L330.45,333.21L358.54,333.21L358.54,208.46L330.45,208.46" style="vector-effect: non-scaling-stroke; fill: none; stroke: rgb(0, 0, 0); stroke-opacity: 1; stroke-width: 1px; opacity: 1;"/></g><g class="points"/><g class="text"/></g><g class="trace scatter trace73eaa4" style="stroke-miterlimit: 2;"><g class="fills"><g><path class="js-fill" d="M358.54,333.21L358.54,333.21L358.54,271.89L358.54,333.21L386.62,333.21L386.62,271.89L358.54,271.89" style="fill: rgb(0, 0, 0); fill-opacity: 1; stroke-width: 0;"/></g></g><g class="errorbars"/><g class="lines"><path class="js-line" d="M358.54,271.89L358.54,333.21L386.62,333.21L386.62,271.89L358.54,271.89" style="vector-effect: non-scaling-stroke; fill: none; stroke: rgb(0, 0, 0); stroke-opacity: 1; stroke-width: 1px; opacity: 1;"/></g><g class="points"/><g class="text"/></g><g class="trace scatter trace52b4d6" style="stroke-miterlimit: 2;"><g class="fills"><g><path class="js-fill" d="M386.62,333.21L386.62,333.21L386.62,318.41L386.62,333.21L414.71,333.21L414.71,318.41L386.62,318.41" style="fill: rgb(0, 0, 0); fill-opacity: 1; stroke-width: 0;"/></g></g><g class="errorbars"/><g class="lines"><path class="js-line" d="M386.62,318.41L386.62,333.21L414.71,333.21L414.71,318.41L386.62,318.41" style="vector-effect: non-scaling-stroke; fill: none; stroke: rgb(0, 0, 0); stroke-opacity: 1; stroke-width: 1px; opacity: 1;"/></g><g class="points"/><g class="text"/></g><g class="trace scatter tracefad34e" style="stroke-miterlimit: 2;"><g class="fills"><g><path class="js-fill" d="M414.71,333.21L414.71,333.21L414.71,328.98L414.71,333.21L442.8,333.21L442.8,328.98L414.71,328.98" style="fill: rgb(0, 0, 0); fill-opacity: 1; stroke-width: 0;"/></g></g><g class="errorbars"/><g class="lines"><path class="js-line" d="M414.71,328.98L414.71,333.21L442.8,333.21L442.8,328.98L414.71,328.98" style="vector-effect: non-scaling-stroke; fill: none; stroke: rgb(0, 0, 0); stroke-opacity: 1; stroke-width: 1px; opacity: 1;"/></g><g class="points"/><g class="text"/></g><g class="trace scatter trace6fb222" style="stroke-miterlimit: 2;"><g class="fills"><g><path class="js-fill" d="M442.8,333.21L442.8,333.21L442.8,328.98L442.8,333.21L470.88,333.21L470.88,328.98L442.8,328.98" style="fill: rgb(0, 0, 0); fill-opacity: 1; stroke-width: 0;"/></g></g><g class="errorbars"/><g class="lines"><path class="js-line" d="M442.8,328.98L442.8,333.21L470.88,333.21L470.88,328.98L442.8,328.98" style="vector-effect: non-scaling-stroke; fill: none; stroke: rgb(0, 0, 0); stroke-opacity: 1; stroke-width: 1px; opacity: 1;"/></g><g class="points"/><g class="text"/></g><g class="trace scatter trace24a992" style="stroke-miterlimit: 2;"><g class="fills"><g><path class="js-fill" d="M21.5,333.21L21.5,333.21L21.5,331.09L21.5,333.21L32.73,333.21L32.73,331.09L21.5,331.09" style="fill: rgb(255, 0, 0); fill-opacity: 0.8; stroke-width: 0;"/></g></g><g class="errorbars"/><g class="lines"><path class="js-line" d="M21.5,331.09L21.5,333.21L32.73,333.21L32.73,331.09L21.5,331.09" style="vector-effect: non-scaling-stroke; fill: none; stroke: rgb(0, 0, 0); stroke-opacity: 0.8; stroke-width: 1px; opacity: 1;"/></g><g class="points"/><g class="text"/></g><g class="trace scatter tracefeca49" style="stroke-miterlimit: 2;"><g class="fills"><g><path class="js-fill" d="M32.73,333.21L32.73,333.21L32.73,333.21L43.97,333.21L32.73,333.21" style="fill: rgb(255, 0, 0); fill-opacity: 0.8; stroke-width: 0;"/></g></g><g class="errorbars"/><g class="lines"><path class="js-line" d="M32.73,333.21L43.97,333.21L32.73,333.21" style="vector-effect: non-scaling-stroke; fill: none; stroke: rgb(0, 0, 0); stroke-opacity: 0.8; stroke-width: 1px; opacity: 1;"/></g><g class="points"/><g class="text"/></g><g class="trace scatter trace5eb16c" style="stroke-miterlimit: 2;"><g class="fills"><g><path class="js-fill" d="M43.97,333.21L43.97,333.21L43.97,333.21L55.2,333.21L43.97,333.21" style="fill: rgb(255, 0, 0); fill-opacity: 0.8; stroke-width: 0;"/></g></g><g class="errorbars"/><g class="lines"><path class="js-line" d="M43.97,333.21L55.2,333.21L43.97,333.21" style="vector-effect: non-scaling-stroke; fill: none; stroke: rgb(0, 0, 0); stroke-opacity: 0.8; stroke-width: 1px; opacity: 1;"/></g><g class="points"/><g class="text"/></g><g class="trace scatter tracedbf0ee" style="stroke-miterlimit: 2;"><g class="fills"><g><path class="js-fill" d="M55.2,333.21L55.2,333.21L55.2,328.98L55.2,333.21L66.44,333.21L66.44,328.98L55.2,328.98" style="fill: rgb(255, 0, 0); fill-opacity: 0.8; stroke-width: 0;"/></g></g><g class="errorbars"/><g class="lines"><path class="js-line" d="M55.2,328.98L55.2,333.21L66.44,333.21L66.44,328.98L55.2,328.98" style="vector-effect: non-scaling-stroke; fill: none; stroke: rgb(0, 0, 0); stroke-opacity: 0.8; stroke-width: 1px; opacity: 1;"/></g><g class="points"/><g class="text"/></g><g class="trace scatter trace16c9bc" style="stroke-miterlimit: 2;"><g class="fills"><g><path class="js-fill" d="M66.44,333.21L66.44,333.21L66.44,326.87L66.44,333.21L77.67,333.21L77.67,326.87L66.44,326.87" style="fill: rgb(255, 0, 0); fill-opacity: 0.8; stroke-width: 0;"/></g></g><g class="errorbars"/><g class="lines"><path class="js-line" d="M66.44,326.87L66.44,333.21L77.67,333.21L77.67,326.87L66.44,326.87" style="vector-effect: non-scaling-stroke; fill: none; stroke: rgb(0, 0, 0); stroke-opacity: 0.8; stroke-width: 1px; opacity: 1;"/></g><g class="points"/><g class="text"/></g><g class="trace scatter trace6079bd" style="stroke-miterlimit: 2;"><g class="fills"><g><path class="js-fill" d="M77.67,333.21L77.67,333.21L77.67,318.41L77.67,333.21L88.91,333.21L88.91,318.41L77.67,318.41" style="fill: rgb(255, 0, 0); fill-opacity: 0.8; stroke-width: 0;"/></g></g><g class="errorbars"/><g class="lines"><path class="js-line" d="M77.67,318.41L77.67,333.21L88.91,333.21L88.91,318.41L77.67,318.41" style="vector-effect: non-scaling-stroke; fill: none; stroke: rgb(0, 0, 0); stroke-opacity: 0.8; stroke-width: 1px; opacity: 1;"/></g><g class="points"/><g class="text"/></g><g class="trace scatter trace587bb4" style="stroke-miterlimit: 2;"><g class="fills"><g><path class="js-fill" d="M88.91,333.21L88.91,333.21L88.91,318.41L88.91,333.21L100.14,333.21L100.14,318.41L88.91,318.41" style="fill: rgb(255, 0, 0); fill-opacity: 0.8; stroke-width: 0;"/></g></g><g class="errorbars"/><g class="lines"><path class="js-line" d="M88.91,318.41L88.91,333.21L100.14,333.21L100.14,318.41L88.91,318.41" style="vector-effect: non-scaling-stroke; fill: none; stroke: rgb(0, 0, 0); stroke-opacity: 0.8; stroke-width: 1px; opacity: 1;"/></g><g class="points"/><g class="text"/></g><g class="trace scatter trace27b69c" style="stroke-miterlimit: 2;"><g class="fills"><g><path class="js-fill" d="M100.14,333.21L100.14,333.21L100.14,309.95L100.14,333.21L111.37,333.21L111.37,309.95L100.14,309.95" style="fill: rgb(255, 0, 0); fill-opacity: 0.8; stroke-width: 0;"/></g></g><g class="errorbars"/><g class="lines"><path class="js-line" d="M100.14,309.95L100.14,333.21L111.37,333.21L111.37,309.95L100.14,309.95" style="vector-effect: non-scaling-stroke; fill: none; stroke: rgb(0, 0, 0); stroke-opacity: 0.8; stroke-width: 1px; opacity: 1;"/></g><g class="points"/><g class="text"/></g><g class="trace scatter trace2f003e" style="stroke-miterlimit: 2;"><g class="fills"><g><path class="js-fill" d="M111.37,333.21L111.37,333.21L111.37,305.72L111.37,333.21L122.61,333.21L122.61,305.72L111.37,305.72" style="fill: rgb(255, 0, 0); fill-opacity: 0.8; stroke-width: 0;"/></g></g><g class="errorbars"/><g class="lines"><path class="js-line" d="M111.37,305.72L111.37,333.21L122.61,333.21L122.61,305.72L111.37,305.72" style="vector-effect: non-scaling-stroke; fill: none; stroke: rgb(0, 0, 0); stroke-opacity: 0.8; stroke-width: 1px; opacity: 1;"/></g><g class="points"/><g class="text"/></g><g class="trace scatter trace01fa77" style="stroke-miterlimit: 2;"><g class="fills"><g><path class="js-fill" d="M122.61,333.21L122.61,333.21L122.61,290.92L122.61,333.21L133.84,333.21L133.84,290.92L122.61,290.92" style="fill: rgb(255, 0, 0); fill-opacity: 0.8; stroke-width: 0;"/></g></g><g class="errorbars"/><g class="lines"><path class="js-line" d="M122.61,290.92L122.61,333.21L133.84,333.21L133.84,290.92L122.61,290.92" style="vector-effect: non-scaling-stroke; fill: none; stroke: rgb(0, 0, 0); stroke-opacity: 0.8; stroke-width: 1px; opacity: 1;"/></g><g class="points"/><g class="text"/></g><g class="trace scatter tracef28e45" style="stroke-miterlimit: 2;"><g class="fills"><g><path class="js-fill" d="M133.84,333.21L133.84,333.21L133.84,263.43L133.84,333.21L145.08,333.21L145.08,263.43L133.84,263.43" style="fill: rgb(255, 0, 0); fill-opacity: 0.8; stroke-width: 0;"/></g></g><g class="errorbars"/><g class="lines"><path class="js-line" d="M133.84,263.43L133.84,333.21L145.08,333.21L145.08,263.43L133.84,263.43" style="vector-effect: non-scaling-stroke; fill: none; stroke: rgb(0, 0, 0); stroke-opacity: 0.8; stroke-width: 1px; opacity: 1;"/></g><g class="points"/><g class="text"/></g><g class="trace scatter trace42cb85" style="stroke-miterlimit: 2;"><g class="fills"><g><path class="js-fill" d="M145.08,333.21L145.08,333.21L145.08,219.03L145.08,333.21L156.31,333.21L156.31,219.03L145.08,219.03" style="fill: rgb(255, 0, 0); fill-opacity: 0.8; stroke-width: 0;"/></g></g><g class="errorbars"/><g class="lines"><path class="js-line" d="M145.08,219.03L145.08,333.21L156.31,333.21L156.31,219.03L145.08,219.03" style="vector-effect: non-scaling-stroke; fill: none; stroke: rgb(0, 0, 0); stroke-opacity: 0.8; stroke-width: 1px; opacity: 1;"/></g><g class="points"/><g class="text"/></g><g class="trace scatter traceecbe22" style="stroke-miterlimit: 2;"><g class="fills"><g><path class="js-fill" d="M156.31,333.21L156.31,333.21L156.31,202.12L156.31,333.21L167.55,333.21L167.55,202.12L156.31,202.12" style="fill: rgb(255, 0, 0); fill-opacity: 0.8; stroke-width: 0;"/></g></g><g class="errorbars"/><g class="lines"><path class="js-line" d="M156.31,202.12L156.31,333.21L167.55,333.21L167.55,202.12L156.31,202.12" style="vector-effect: non-scaling-stroke; fill: none; stroke: rgb(0, 0, 0); stroke-opacity: 0.8; stroke-width: 1px; opacity: 1;"/></g><g class="points"/><g class="text"/></g><g class="trace scatter trace210d21" style="stroke-miterlimit: 2;"><g class="fills"><g><path class="js-fill" d="M167.55,333.21L167.55,333.21L167.55,200L167.55,333.21L178.78,333.21L178.78,200L167.55,200" style="fill: rgb(255, 0, 0); fill-opacity: 0.8; stroke-width: 0;"/></g></g><g class="errorbars"/><g class="lines"><path class="js-line" d="M167.55,200L167.55,333.21L178.78,333.21L178.78,200L167.55,200" style="vector-effect: non-scaling-stroke; fill: none; stroke: rgb(0, 0, 0); stroke-opacity: 0.8; stroke-width: 1px; opacity: 1;"/></g><g class="points"/><g class="text"/></g><g class="trace scatter trace727dc2" style="stroke-miterlimit: 2;"><g class="fills"><g><path class="js-fill" d="M178.78,333.21L178.78,333.21L178.78,132.34L178.78,333.21L190.02,333.21L190.02,132.34L178.78,132.34" style="fill: rgb(255, 0, 0); fill-opacity: 0.8; stroke-width: 0;"/></g></g><g class="errorbars"/><g class="lines"><path class="js-line" d="M178.78,132.34L178.78,333.21L190.02,333.21L190.02,132.34L178.78,132.34" style="vector-effect: non-scaling-stroke; fill: none; stroke: rgb(0, 0, 0); stroke-opacity: 0.8; stroke-width: 1px; opacity: 1;"/></g><g class="points"/><g class="text"/></g><g class="trace scatter traceb87c8b" style="stroke-miterlimit: 2;"><g class="fills"><g><path class="js-fill" d="M190.02,333.21L190.02,333.21L190.02,106.97L190.02,333.21L201.25,333.21L201.25,106.97L190.02,106.97" style="fill: rgb(255, 0, 0); fill-opacity: 0.8; stroke-width: 0;"/></g></g><g class="errorbars"/><g class="lines"><path class="js-line" d="M190.02,106.97L190.02,333.21L201.25,333.21L201.25,106.97L190.02,106.97" style="vector-effect: non-scaling-stroke; fill: none; stroke: rgb(0, 0, 0); stroke-opacity: 0.8; stroke-width: 1px; opacity: 1;"/></g><g class="points"/><g class="text"/></g><g class="trace scatter trace810c5d" style="stroke-miterlimit: 2;"><g class="fills"><g><path class="js-fill" d="M201.25,333.21L201.25,333.21L201.25,113.31L201.25,333.21L212.49,333.21L212.49,113.31L201.25,113.31" style="fill: rgb(255, 0, 0); fill-opacity: 0.8; stroke-width: 0;"/></g></g><g class="errorbars"/><g class="lines"><path class="js-line" d="M201.25,113.31L201.25,333.21L212.49,333.21L212.49,113.31L201.25,113.31" style="vector-effect: non-scaling-stroke; fill: none; stroke: rgb(0, 0, 0); stroke-opacity: 0.8; stroke-width: 1px; opacity: 1;"/></g><g class="points"/><g class="text"/></g><g class="trace scatter tracec478dc" style="stroke-miterlimit: 2;"><g class="fills"><g><path class="js-fill" d="M212.49,333.21L212.49,333.21L212.49,111.2L212.49,333.21L223.72,333.21L223.72,111.2L212.49,111.2" style="fill: rgb(255, 0, 0); fill-opacity: 0.8; stroke-width: 0;"/></g></g><g class="errorbars"/><g class="lines"><path class="js-line" d="M212.49,111.2L212.49,333.21L223.72,333.21L223.72,111.2L212.49,111.2" style="vector-effect: non-scaling-stroke; fill: none; stroke: rgb(0, 0, 0); stroke-opacity: 0.8; stroke-width: 1px; opacity: 1;"/></g><g class="points"/><g class="text"/></g><g class="trace scatter traceb02ea2" style="stroke-miterlimit: 2;"><g class="fills"><g><path class="js-fill" d="M223.72,333.21L223.72,333.21L223.72,77.37L223.72,333.21L234.96,333.21L234.96,77.37L223.72,77.37" style="fill: rgb(255, 0, 0); fill-opacity: 0.8; stroke-width: 0;"/></g></g><g class="errorbars"/><g class="lines"><path class="js-line" d="M223.72,77.37L223.72,333.21L234.96,333.21L234.96,77.37L223.72,77.37" style="vector-effect: non-scaling-stroke; fill: none; stroke: rgb(0, 0, 0); stroke-opacity: 0.8; stroke-width: 1px; opacity: 1;"/></g><g class="points"/><g class="text"/></g><g class="trace scatter traceac99e3" style="stroke-miterlimit: 2;"><g class="fills"><g><path class="js-fill" d="M234.96,333.21L234.96,333.21L234.96,90.05L234.96,333.21L246.19,333.21L246.19,90.05L234.96,90.05" style="fill: rgb(255, 0, 0); fill-opacity: 0.8; stroke-width: 0;"/></g></g><g class="errorbars"/><g class="lines"><path class="js-line" d="M234.96,90.05L234.96,333.21L246.19,333.21L246.19,90.05L234.96,90.05" style="vector-effect: non-scaling-stroke; fill: none; stroke: rgb(0, 0, 0); stroke-opacity: 0.8; stroke-width: 1px; opacity: 1;"/></g><g class="points"/><g class="text"/></g><g class="trace scatter trace57017e" style="stroke-miterlimit: 2;"><g class="fills"><g><path class="js-fill" d="M246.19,333.21L246.19,333.21L246.19,183.09L246.19,333.21L257.42,333.21L257.42,183.09L246.19,183.09" style="fill: rgb(255, 0, 0); fill-opacity: 0.8; stroke-width: 0;"/></g></g><g class="errorbars"/><g class="lines"><path class="js-line" d="M246.19,183.09L246.19,333.21L257.42,333.21L257.42,183.09L246.19,183.09" style="vector-effect: non-scaling-stroke; fill: none; stroke: rgb(0, 0, 0); stroke-opacity: 0.8; stroke-width: 1px; opacity: 1;"/></g><g class="points"/><g class="text"/></g><g class="trace scatter tracea32a96" style="stroke-miterlimit: 2;"><g class="fills"><g><path class="js-fill" d="M257.42,333.21L257.42,333.21L257.42,320.52L257.42,333.21L268.66,333.21L268.66,320.52L257.42,320.52" style="fill: rgb(255, 0, 0); fill-opacity: 0.8; stroke-width: 0;"/></g></g><g class="errorbars"/><g class="lines"><path class="js-line" d="M257.42,320.52L257.42,333.21L268.66,333.21L268.66,320.52L257.42,320.52" style="vector-effect: non-scaling-stroke; fill: none; stroke: rgb(0, 0, 0); stroke-opacity: 0.8; stroke-width: 1px; opacity: 1;"/></g><g class="points"/><g class="text"/></g><g class="trace scatter trace48cdae" style="stroke-miterlimit: 2;"><g class="fills"><g><path class="js-fill" d="M234.96,333.21L234.96,333.21L234.96,235.95L234.96,333.21L246.19,333.21L246.19,235.95L234.96,235.95" style="fill: rgb(0, 0, 255); fill-opacity: 0.6; stroke-width: 0;"/></g></g><g class="errorbars"/><g class="lines"><path class="js-line" d="M234.96,235.95L234.96,333.21L246.19,333.21L246.19,235.95L234.96,235.95" style="vector-effect: non-scaling-stroke; fill: none; stroke: rgb(0, 0, 0); stroke-opacity: 0.6; stroke-width: 1px; opacity: 1;"/></g><g class="points"/><g class="text"/></g><g class="trace scatter trace83cc25" style="stroke-miterlimit: 2;"><g class="fills"><g><path class="js-fill" d="M246.19,333.21L246.19,333.21L246.19,98.51L246.19,333.21L257.42,333.21L257.42,98.51L246.19,98.51" style="fill: rgb(0, 0, 255); fill-opacity: 0.6; stroke-width: 0;"/></g></g><g class="errorbars"/><g class="lines"><path class="js-line" d="M246.19,98.51L246.19,333.21L257.42,333.21L257.42,98.51L246.19,98.51" style="vector-effect: non-scaling-stroke; fill: none; stroke: rgb(0, 0, 0); stroke-opacity: 0.6; stroke-width: 1px; opacity: 1;"/></g><g class="points"/><g class="text"/></g><g class="trace scatter traceb30c3d" style="stroke-miterlimit: 2;"><g class="fills"><g><path class="js-fill" d="M257.42,333.21L257.42,333.21L257.42,43.54L257.42,333.21L268.66,333.21L268.66,43.54L257.42,43.54" style="fill: rgb(0, 0, 255); fill-opacity: 0.6; stroke-width: 0;"/></g></g><g class="errorbars"/><g class="lines"><path class="js-line" d="M257.42,43.54L257.42,333.21L268.66,333.21L268.66,43.54L257.42,43.54" style="vector-effect: non-scaling-stroke; fill: none; stroke: rgb(0, 0, 0); stroke-opacity: 0.6; stroke-width: 1px; opacity: 1;"/></g><g class="points"/><g class="text"/></g><g class="trace scatter traced6949b" style="stroke-miterlimit: 2;"><g class="fills"><g><path class="js-fill" d="M268.66,333.21L268.66,333.21L268.66,58.34L268.66,333.21L279.89,333.21L279.89,58.34L268.66,58.34" style="fill: rgb(0, 0, 255); fill-opacity: 0.6; stroke-width: 0;"/></g></g><g class="errorbars"/><g class="lines"><path class="js-line" d="M268.66,58.34L268.66,333.21L279.89,333.21L279.89,58.34L268.66,58.34" style="vector-effect: non-scaling-stroke; fill: none; stroke: rgb(0, 0, 0); stroke-opacity: 0.6; stroke-width: 1px; opacity: 1;"/></g><g class="points"/><g class="text"/></g><g class="trace scatter trace54b19f" style="stroke-miterlimit: 2;"><g class="fills"><g><path class="js-fill" d="M279.89,333.21L279.89,333.21L279.89,98.51L279.89,333.21L291.13,333.21L291.13,98.51L279.89,98.51" style="fill: rgb(0, 0, 255); fill-opacity: 0.6; stroke-width: 0;"/></g></g><g class="errorbars"/><g class="lines"><path class="js-line" d="M279.89,98.51L279.89,333.21L291.13,333.21L291.13,98.51L279.89,98.51" style="vector-effect: non-scaling-stroke; fill: none; stroke: rgb(0, 0, 0); stroke-opacity: 0.6; stroke-width: 1px; opacity: 1;"/></g><g class="points"/><g class="text"/></g><g class="trace scatter trace52a5a1" style="stroke-miterlimit: 2;"><g class="fills"><g><path class="js-fill" d="M291.13,333.21L291.13,333.21L291.13,115.43L291.13,333.21L302.36,333.21L302.36,115.43L291.13,115.43" style="fill: rgb(0, 0, 255); fill-opacity: 0.6; stroke-width: 0;"/></g></g><g class="errorbars"/><g class="lines"><path class="js-line" d="M291.13,115.43L291.13,333.21L302.36,333.21L302.36,115.43L291.13,115.43" style="vector-effect: non-scaling-stroke; fill: none; stroke: rgb(0, 0, 0); stroke-opacity: 0.6; stroke-width: 1px; opacity: 1;"/></g><g class="points"/><g class="text"/></g><g class="trace scatter traceea6cd0" style="stroke-miterlimit: 2;"><g class="fills"><g><path class="js-fill" d="M302.36,333.21L302.36,333.21L302.36,168.29L302.36,333.21L313.6,333.21L313.6,168.29L302.36,168.29" style="fill: rgb(0, 0, 255); fill-opacity: 0.6; stroke-width: 0;"/></g></g><g class="errorbars"/><g class="lines"><path class="js-line" d="M302.36,168.29L302.36,333.21L313.6,333.21L313.6,168.29L302.36,168.29" style="vector-effect: non-scaling-stroke; fill: none; stroke: rgb(0, 0, 0); stroke-opacity: 0.6; stroke-width: 1px; opacity: 1;"/></g><g class="points"/><g class="text"/></g><g class="trace scatter traceb6fa92" style="stroke-miterlimit: 2;"><g class="fills"><g><path class="js-fill" d="M313.6,333.21L313.6,333.21L313.6,208.46L313.6,333.21L324.83,333.21L324.83,208.46L313.6,208.46" style="fill: rgb(0, 0, 255); fill-opacity: 0.6; stroke-width: 0;"/></g></g><g class="errorbars"/><g class="lines"><path class="js-line" d="M313.6,208.46L313.6,333.21L324.83,333.21L324.83,208.46L313.6,208.46" style="vector-effect: non-scaling-stroke; fill: none; stroke: rgb(0, 0, 0); stroke-opacity: 0.6; stroke-width: 1px; opacity: 1;"/></g><g class="points"/><g class="text"/></g><g class="trace scatter trace3fe686" style="stroke-miterlimit: 2;"><g class="fills"><g><path class="js-fill" d="M324.83,333.21L324.83,333.21L324.83,208.46L324.83,333.21L336.07,333.21L336.07,208.46L324.83,208.46" style="fill: rgb(0, 0, 255); fill-opacity: 0.6; stroke-width: 0;"/></g></g><g class="errorbars"/><g class="lines"><path class="js-line" d="M324.83,208.46L324.83,333.21L336.07,333.21L336.07,208.46L324.83,208.46" style="vector-effect: non-scaling-stroke; fill: none; stroke: rgb(0, 0, 0); stroke-opacity: 0.6; stroke-width: 1px; opacity: 1;"/></g><g class="points"/><g class="text"/></g><g class="trace scatter trace54d5a1" style="stroke-miterlimit: 2;"><g class="fills"><g><path class="js-fill" d="M336.07,333.21L336.07,333.21L336.07,229.6L336.07,333.21L347.3,333.21L347.3,229.6L336.07,229.6" style="fill: rgb(0, 0, 255); fill-opacity: 0.6; stroke-width: 0;"/></g></g><g class="errorbars"/><g class="lines"><path class="js-line" d="M336.07,229.6L336.07,333.21L347.3,333.21L347.3,229.6L336.07,229.6" style="vector-effect: non-scaling-stroke; fill: none; stroke: rgb(0, 0, 0); stroke-opacity: 0.6; stroke-width: 1px; opacity: 1;"/></g><g class="points"/><g class="text"/></g><g class="trace scatter tracebef86f" style="stroke-miterlimit: 2;"><g class="fills"><g><path class="js-fill" d="M347.3,333.21L347.3,333.21L347.3,235.95L347.3,333.21L358.54,333.21L358.54,235.95L347.3,235.95" style="fill: rgb(0, 0, 255); fill-opacity: 0.6; stroke-width: 0;"/></g></g><g class="errorbars"/><g class="lines"><path class="js-line" d="M347.3,235.95L347.3,333.21L358.54,333.21L358.54,235.95L347.3,235.95" style="vector-effect: non-scaling-stroke; fill: none; stroke: rgb(0, 0, 0); stroke-opacity: 0.6; stroke-width: 1px; opacity: 1;"/></g><g class="points"/><g class="text"/></g><g class="trace scatter trace195cba" style="stroke-miterlimit: 2;"><g class="fills"><g><path class="js-fill" d="M358.54,333.21L358.54,333.21L358.54,286.69L358.54,333.21L369.77,333.21L369.77,286.69L358.54,286.69" style="fill: rgb(0, 0, 255); fill-opacity: 0.6; stroke-width: 0;"/></g></g><g class="errorbars"/><g class="lines"><path class="js-line" d="M358.54,286.69L358.54,333.21L369.77,333.21L369.77,286.69L358.54,286.69" style="vector-effect: non-scaling-stroke; fill: none; stroke: rgb(0, 0, 0); stroke-opacity: 0.6; stroke-width: 1px; opacity: 1;"/></g><g class="points"/><g class="text"/></g><g class="trace scatter traced9718e" style="stroke-miterlimit: 2;"><g class="fills"><g><path class="js-fill" d="M369.77,333.21L369.77,333.21L369.77,295.15L369.77,333.21L381.01,333.21L381.01,295.15L369.77,295.15" style="fill: rgb(0, 0, 255); fill-opacity: 0.6; stroke-width: 0;"/></g></g><g class="errorbars"/><g class="lines"><path class="js-line" d="M369.77,295.15L369.77,333.21L381.01,333.21L381.01,295.15L369.77,295.15" style="vector-effect: non-scaling-stroke; fill: none; stroke: rgb(0, 0, 0); stroke-opacity: 0.6; stroke-width: 1px; opacity: 1;"/></g><g class="points"/><g class="text"/></g><g class="trace scatter traced1972f" style="stroke-miterlimit: 2;"><g class="fills"><g><path class="js-fill" d="M381.01,333.21L381.01,333.21L381.01,309.95L381.01,333.21L392.24,333.21L392.24,309.95L381.01,309.95" style="fill: rgb(0, 0, 255); fill-opacity: 0.6; stroke-width: 0;"/></g></g><g class="errorbars"/><g class="lines"><path class="js-line" d="M381.01,309.95L381.01,333.21L392.24,333.21L392.24,309.95L381.01,309.95" style="vector-effect: non-scaling-stroke; fill: none; stroke: rgb(0, 0, 0); stroke-opacity: 0.6; stroke-width: 1px; opacity: 1;"/></g><g class="points"/><g class="text"/></g><g class="trace scatter trace54b1d0" style="stroke-miterlimit: 2;"><g class="fills"><g><path class="js-fill" d="M392.24,333.21L392.24,333.21L392.24,322.64L392.24,333.21L403.47,333.21L403.47,322.64L392.24,322.64" style="fill: rgb(0, 0, 255); fill-opacity: 0.6; stroke-width: 0;"/></g></g><g class="errorbars"/><g class="lines"><path class="js-line" d="M392.24,322.64L392.24,333.21L403.47,333.21L403.47,322.64L392.24,322.64" style="vector-effect: non-scaling-stroke; fill: none; stroke: rgb(0, 0, 0); stroke-opacity: 0.6; stroke-width: 1px; opacity: 1;"/></g><g class="points"/><g class="text"/></g><g class="trace scatter trace71abd7" style="stroke-miterlimit: 2;"><g class="fills"><g><path class="js-fill" d="M403.47,333.21L403.47,333.21L403.47,322.64L403.47,333.21L414.71,333.21L414.71,322.64L403.47,322.64" style="fill: rgb(0, 0, 255); fill-opacity: 0.6; stroke-width: 0;"/></g></g><g class="errorbars"/><g class="lines"><path class="js-line" d="M403.47,322.64L403.47,333.21L414.71,333.21L414.71,322.64L403.47,322.64" style="vector-effect: non-scaling-stroke; fill: none; stroke: rgb(0, 0, 0); stroke-opacity: 0.6; stroke-width: 1px; opacity: 1;"/></g><g class="points"/><g class="text"/></g><g class="trace scatter traceda7dab" style="stroke-miterlimit: 2;"><g class="fills"><g><path class="js-fill" d="M414.71,333.21L414.71,333.21L414.71,324.75L414.71,333.21L425.94,333.21L425.94,324.75L414.71,324.75" style="fill: rgb(0, 0, 255); fill-opacity: 0.6; stroke-width: 0;"/></g></g><g class="errorbars"/><g class="lines"><path class="js-line" d="M414.71,324.75L414.71,333.21L425.94,333.21L425.94,324.75L414.71,324.75" style="vector-effect: non-scaling-stroke; fill: none; stroke: rgb(0, 0, 0); stroke-opacity: 0.6; stroke-width: 1px; opacity: 1;"/></g><g class="points"/><g class="text"/></g><g class="trace scatter tracebbe6fb" style="stroke-miterlimit: 2;"><g class="fills"><g><path class="js-fill" d="M425.94,333.21L425.94,333.21L425.94,326.87L425.94,333.21L437.18,333.21L437.18,326.87L425.94,326.87" style="fill: rgb(0, 0, 255); fill-opacity: 0.6; stroke-width: 0;"/></g></g><g class="errorbars"/><g class="lines"><path class="js-line" d="M425.94,326.87L425.94,333.21L437.18,333.21L437.18,326.87L425.94,326.87" style="vector-effect: non-scaling-stroke; fill: none; stroke: rgb(0, 0, 0); stroke-opacity: 0.6; stroke-width: 1px; opacity: 1;"/></g><g class="points"/><g class="text"/></g><g class="trace scatter trace467c16" style="stroke-miterlimit: 2;"><g class="fills"><g><path class="js-fill" d="M437.18,333.21L437.18,333.21L437.18,331.09L437.18,333.21L448.41,333.21L448.41,331.09L437.18,331.09" style="fill: rgb(0, 0, 255); fill-opacity: 0.6; stroke-width: 0;"/></g></g><g class="errorbars"/><g class="lines"><path class="js-line" d="M437.18,331.09L437.18,333.21L448.41,333.21L448.41,331.09L437.18,331.09" style="vector-effect: non-scaling-stroke; fill: none; stroke: rgb(0, 0, 0); stroke-opacity: 0.6; stroke-width: 1px; opacity: 1;"/></g><g class="points"/><g class="text"/></g><g class="trace scatter trace3fcb9a" style="stroke-miterlimit: 2;"><g class="fills"><g><path class="js-fill" d="M448.41,333.21L448.41,333.21L448.41,331.09L448.41,333.21L459.65,333.21L459.65,331.09L448.41,331.09" style="fill: rgb(0, 0, 255); fill-opacity: 0.6; stroke-width: 0;"/></g></g><g class="errorbars"/><g class="lines"><path class="js-line" d="M448.41,331.09L448.41,333.21L459.65,333.21L459.65,331.09L448.41,331.09" style="vector-effect: non-scaling-stroke; fill: none; stroke: rgb(0, 0, 0); stroke-opacity: 0.6; stroke-width: 1px; opacity: 1;"/></g><g class="points"/><g class="text"/></g><g class="trace scatter trace4e848f" style="stroke-miterlimit: 2;"><g class="fills"><g><path class="js-fill" d="M459.65,333.21L459.65,333.21L459.65,331.09L459.65,333.21L470.88,333.21L470.88,331.09L459.65,331.09" style="fill: rgb(0, 0, 255); fill-opacity: 0.6; stroke-width: 0;"/></g></g><g class="errorbars"/><g class="lines"><path class="js-line" d="M459.65,331.09L459.65,333.21L470.88,333.21L470.88,331.09L459.65,331.09" style="vector-effect: non-scaling-stroke; fill: none; stroke: rgb(0, 0, 0); stroke-opacity: 0.6; stroke-width: 1px; opacity: 1;"/></g><g class="points"/><g class="text"/></g></g></g><g class="overplot"/><path class="xlines-above crisp" d="M25.931233595800524,366.95669291338584H524.5354330708661" style="fill: none; stroke-width: 1px; stroke: rgb(0, 0, 0); stroke-opacity: 1;"/><path class="ylines-above crisp" d="M26.431233595800524,23.543307086614167V366.45669291338584" style="fill: none; stroke-width: 1px; stroke: rgb(0, 0, 0); stroke-opacity: 1;"/><g class="overlines-above"/><g class="xaxislayer-above"><path class="xtick ticks crisp" d="M0,366.45669291338584v-5" transform="translate(48.43123359580052,0)" style="stroke: rgb(0, 0, 0); stroke-opacity: 1; stroke-width: 1px;"/><path class="xtick ticks crisp" d="M0,366.45669291338584v-5" transform="translate(160.77123359580054,0)" style="stroke: rgb(0, 0, 0); stroke-opacity: 1; stroke-width: 1px;"/><path class="xtick ticks crisp" d="M0,366.45669291338584v-5" transform="translate(273.1212335958005,0)" style="stroke: rgb(0, 0, 0); stroke-opacity: 1; stroke-width: 1px;"/><path class="xtick ticks crisp" d="M0,366.45669291338584v-5" transform="translate(385.4712335958005,0)" style="stroke: rgb(0, 0, 0); stroke-opacity: 1; stroke-width: 1px;"/><path class="xtick ticks crisp" d="M0,366.45669291338584v-5" transform="translate(497.8112335958005,0)" style="stroke: rgb(0, 0, 0); stroke-opacity: 1; stroke-width: 1px;"/><g class="xtick"><text text-anchor="middle" x="0" y="380.6566929133858" transform="translate(48.43123359580052,0)" style="font-family: sans-serif; font-size: 11px; fill: rgb(0, 0, 0); fill-opacity: 1; white-space: pre;">-400</text></g><g class="xtick"><text text-anchor="middle" x="0" y="380.6566929133858" transform="translate(160.77123359580054,0)" style="font-family: sans-serif; font-size: 11px; fill: rgb(0, 0, 0); fill-opacity: 1; white-space: pre;">-200</text></g><g class="xtick"><text text-anchor="middle" x="0" y="380.6566929133858" transform="translate(273.1212335958005,0)" style="font-family: sans-serif; font-size: 11px; fill: rgb(0, 0, 0); fill-opacity: 1; white-space: pre;">0</text></g><g class="xtick"><text text-anchor="middle" x="0" y="380.6566929133858" transform="translate(385.4712335958005,0)" style="font-family: sans-serif; font-size: 11px; fill: rgb(0, 0, 0); fill-opacity: 1; white-space: pre;">200</text></g><g class="xtick"><text text-anchor="middle" x="0" y="380.6566929133858" transform="translate(497.8112335958005,0)" style="font-family: sans-serif; font-size: 11px; fill: rgb(0, 0, 0); fill-opacity: 1; white-space: pre;">400</text></g></g><g class="yaxislayer-above"><path class="ytick ticks crisp" d="M26.931233595800524,0h5" transform="translate(0,356.75330708661414)" style="stroke: rgb(0, 0, 0); stroke-opacity: 1; stroke-width: 1px;"/><path class="ytick ticks crisp" d="M26.931233595800524,0h5" transform="translate(0,251.03330708661417)" style="stroke: rgb(0, 0, 0); stroke-opacity: 1; stroke-width: 1px;"/><path class="ytick ticks crisp" d="M26.931233595800524,0h5" transform="translate(0,145.31330708661417)" style="stroke: rgb(0, 0, 0); stroke-opacity: 1; stroke-width: 1px;"/><path class="ytick ticks crisp" d="M26.931233595800524,0h5" transform="translate(0,39.59330708661417)" style="stroke: rgb(0, 0, 0); stroke-opacity: 1; stroke-width: 1px;"/><g class="ytick"><text text-anchor="end" x="23.731233595800525" y="3.8499999999999996" transform="translate(0,356.75330708661414)" style="font-family: sans-serif; font-size: 11px; fill: rgb(0, 0, 0); fill-opacity: 1; white-space: pre;">0</text></g><g class="ytick"><text text-anchor="end" x="23.731233595800525" y="3.8499999999999996" transform="translate(0,251.03330708661417)" style="font-family: sans-serif; font-size: 11px; fill: rgb(0, 0, 0); fill-opacity: 1; white-space: pre;">50</text></g><g class="ytick"><text text-anchor="end" x="23.731233595800525" y="3.8499999999999996" transform="translate(0,145.31330708661417)" style="font-family: sans-serif; font-size: 11px; fill: rgb(0, 0, 0); fill-opacity: 1; white-space: pre;">100</text></g><g class="ytick"><text text-anchor="end" x="23.731233595800525" y="3.8499999999999996" transform="translate(0,39.59330708661417)" style="font-family: sans-serif; font-size: 11px; fill: rgb(0, 0, 0); fill-opacity: 1; white-space: pre;">150</text></g></g><g class="overaxes-above"/></g></g><g class="polarlayer"/><g class="ternarylayer"/><g class="geolayer"/><g class="pielayer"/><g class="glimages"/><defs id="topdefs-8a5b35"><g class="clips"/><clipPath id="legend8a5b35"><rect width="72" height="67" x="0" y="0"/></clipPath></defs><g class="layer-above"><g class="imagelayer"/><g class="shapelayer"/></g><g class="infolayer"><g class="legend" pointer-events="all" transform="translate(528, 20)"><rect class="bg" shape-rendering="crispEdges" width="72" height="67" x="0" y="0" style="stroke: rgb(0, 0, 0); stroke-opacity: 1; fill: rgb(255, 255, 255); fill-opacity: 1; stroke-width: 0px;"/><g class="scrollbox" transform="translate(0, 0)" clip-path="url(#legend8a5b35)"><g class="groups" transform="translate(0, 0)"><g class="traces" transform="translate(0, 14.5)" style="opacity: 1;"><text class="legendtext user-select-none" text-anchor="start" x="40" y="4.29" style="font-family: sans-serif; font-size: 11px; fill: rgb(0, 0, 0); fill-opacity: 1; white-space: pre;">Last</text><rect class="legendtoggle" pointer-events="all" x="0" y="-9.5" width="112" height="19" style="cursor: pointer; fill: rgb(0, 0, 0); fill-opacity: 0;"/><g class="layers"><g class="legendfill"><path class="js-fill" d="M5,-2h30v6h-30z" style="stroke-width: 0; fill: rgb(0, 0, 0); fill-opacity: 1;"/></g><g class="legendlines"><path class="js-line" d="M5,-2h30" style="fill: none; stroke: rgb(0, 0, 0); stroke-opacity: 1; stroke-width: 1px;"/></g><g class="legendsymbols"><g class="legendpoints"/></g></g></g></g><g class="groups" transform="translate(0, 0)"><g class="traces" transform="translate(0, 33.5)" style="opacity: 1;"><text class="legendtext user-select-none" text-anchor="start" x="40" y="4.29" style="font-family: sans-serif; font-size: 11px; fill: rgb(0, 0, 0); fill-opacity: 1; white-space: pre;">Min</text><rect class="legendtoggle" pointer-events="all" x="0" y="-9.5" width="112" height="19" style="cursor: pointer; fill: rgb(0, 0, 0); fill-opacity: 0;"/><g class="layers"><g class="legendfill"><path class="js-fill" d="M5,-2h30v6h-30z" style="stroke-width: 0; fill: rgb(255, 0, 0); fill-opacity: 0.8;"/></g><g class="legendlines"><path class="js-line" d="M5,-2h30" style="fill: none; stroke: rgb(0, 0, 0); stroke-opacity: 0.8; stroke-width: 1px;"/></g><g class="legendsymbols"><g class="legendpoints"/></g></g></g></g><g class="groups" transform="translate(0, 0)"><g class="traces" transform="translate(0, 52.5)" style="opacity: 1;"><text class="legendtext user-select-none" text-anchor="start" x="40" y="4.29" style="font-family: sans-serif; font-size: 11px; fill: rgb(0, 0, 0); fill-opacity: 1; white-space: pre;">Max</text><rect class="legendtoggle" pointer-events="all" x="0" y="-9.5" width="112" height="19" style="cursor: pointer; fill: rgb(0, 0, 0); fill-opacity: 0;"/><g class="layers"><g class="legendfill"><path class="js-fill" d="M5,-2h30v6h-30z" style="stroke-width: 0; fill: rgb(0, 0, 255); fill-opacity: 0.6;"/></g><g class="legendlines"><path class="js-line" d="M5,-2h30" style="fill: none; stroke: rgb(0, 0, 0); stroke-opacity: 0.6; stroke-width: 1px;"/></g><g class="legendsymbols"><g class="legendpoints"/></g></g></g></g></g><rect class="scrollbar" rx="20" ry="3" width="0" height="0" x="0" y="0" style="fill: rgb(128, 139, 164); fill-opacity: 1;"/></g><g class="g-gtitle"/><g class="g-xtitle"/><g class="g-ytitle"/></g></svg>